<svg xmlns="http://www.w3.org/2000/svg" width="610" height="624.46" viewBox="0 0 610 624.46">
  <style>
    .a { fill: #282d35; }
    .poster-text { fill: #b9c0cb; font-family: Monaco, Consolas, Menlo, 'Bitstream Vera Sans Mono', 'Powerline Symbols', monospace; font-size: 16px; }
    @keyframes posterFade { to { opacity: 0; } }
    .poster-overlay { animation: posterFade 0.001s linear both; animation-delay: 1.5s; }
    #term-content { animation: k 8.00s steps(1, end) infinite; transform: translateX(-58px); }
  </style>
<rect width="610" height="624.46" rx="5" ry="5" class="a"/><svg y="0" x="0"><circle cx="20" cy="20" r="6" fill="#ff5f58"/><circle cx="40" cy="20" r="6" fill="#ffbd2e"/><circle cx="60" cy="20" r="6" fill="#18c132"/></svg>
<g class="poster-overlay"><text x="40" y="80" class="poster-text">ftime: File Time Viewer</text><text x="40" y="102" class="poster-text">- Lists files by modification time</text></g><svg id="term-content" x="15" y="50" xmlns="http://www.w3.org/2000/svg" xmlns:xlink="http://www.w3.org/1999/xlink" width="580" height="564.46"><rect width="580" height="564.46" rx="0" ry="0" class="a"/><svg height="564.46" viewBox="0 0 58 56.446" width="580" xmlns="http://www.w3.org/2000/svg" xmlns:xlink="http://www.w3.org/1999/xlink"><style>@keyframes k{0%{transform:translateX(0)}.1%{transform:translateX(-58px)}18.8%{transform:translateX(-174px)}30.1%{transform:translateX(-232px)}30.2%{transform:translateX(-290px)}30.3%{transform:translateX(-348px)}30.4%{transform:translateX(-406px)}30.6%{transform:translateX(-464px)}30.7%{transform:translateX(-522px)}30.8%{transform:translateX(-580px)}30.9%{transform:translateX(-638px)}31%{transform:translateX(-696px)}31.1%{transform:translateX(-754px)}31.2%{transform:translateX(-812px)}49.9%{transform:translateX(-870px)}64.9%{transform:translateX(-928px)}76.2%{transform:translateX(-986px)}76.4%{transform:translateX(-1044px)}76.5%{transform:translateX(-1102px)}76.6%{transform:translateX(-1160px)}76.7%{transform:translateX(-1218px)}76.9%{transform:translateX(-1276px)}77%{transform:translateX(-1334px)}77.1%{transform:translateX(-1392px)}77.2%{transform:translateX(-1450px)}77.3%{transform:translateX(-1508px)}77.4%{transform:translateX(-1566px)}77.5%{transform:translateX(-1624px)}92.5%{transform:translateX(-1682px)}to{transform:translateX(-1740px)}}.a{fill:#282d35}.c,.d,.e{fill:#b9c0cb;white-space:pre}.d,.e{fill:#dbab79}.e{fill:#a8cc8c;font-weight:700}.f{fill:#d290e4}.f,.g,.h,.i{white-space:pre}.g{fill:#71bef2;font-weight:700}.h,.i{fill:#6f7783}.i{fill:#66c2cd}</style><g font-family="Monaco,Consolas,Menlo,'Bitstream Vera Sans Mono','Powerline Symbols',monospace" font-size="1.67"><defs><symbol id="1"><text y="1.67" class="c">$</text><text x="2.004" y="1.67" class="c">ftime</text></symbol><symbol id="2"><text x="2.004" y="1.67" class="c">MODIFIED</text><text x="15.03" y="1.67" class="c">CREATED</text><text x="28.056" y="1.67" class="c">NAME</text></symbol><symbol id="3"><text y="1.67" class="d">+</text><text x="2.004" y="1.67" class="e">08-29</text><text x="8.016" y="1.67" class="e">19:51</text><text x="15.03" y="1.67" class="c">08-29</text><text x="21.042" y="1.67" class="c">14:26</text><text x="28.056" y="1.67" class="f">NEW.md</text></symbol><symbol id="4"><text x="2.004" y="1.67" class="c">08-29</text><text x="8.016" y="1.67" class="c">10:50</text><text x="15.03" y="1.67" class="c">08-29</text><text x="21.042" y="1.67" class="c">10:50</text><text x="28.056" y="1.67" class="g">api</text></symbol><symbol id="5"><text y="1.67" class="d">+</text><text x="2.004" y="1.67" class="e">08-29</text><text x="8.016" y="1.67" class="e">19:35</text><text x="15.03" y="1.67" class="c">08-29</text><text x="21.042" y="1.67" class="c">10:50</text><text x="28.056" y="1.67" class="h">api_server.log</text></symbol><symbol id="6"><text y="1.67" class="d">+</text><text x="2.004" y="1.67" class="e">08-29</text><text x="8.016" y="1.67" class="e">16:15</text><text x="15.03" y="1.67" class="c">08-29</text><text x="21.042" y="1.67" class="c">10:50</text><text x="28.056" y="1.67" class="i">app.ts</text></symbol><symbol id="7"><text y="1.67" class="d">+</text><text x="2.004" y="1.67" class="c">08-29</text><text x="8.016" y="1.67" class="c">14:27</text><text x="15.03" y="1.67" class="c">08-29</text><text x="21.042" y="1.67" class="c">10:50</text><text x="28.056" y="1.67" class="g">docs</text></symbol><symbol id="8"><text y="1.67" class="d">+</text><text x="2.004" y="1.67" class="h">08-19</text><text x="8.016" y="1.67" class="h">16:15</text><text x="15.03" y="1.67" class="c">08-29</text><text x="21.042" y="1.67" class="c">10:50</text><text x="28.056" y="1.67" class="f">old.md</text></symbol><symbol id="9"><text y="1.67" class="d">+</text><text x="2.004" y="1.67" class="e">08-29</text><text x="8.016" y="1.67" class="e">16:15</text><text x="15.03" y="1.67" class="c">08-29</text><text x="21.042" y="1.67" class="c">10:50</text><text x="28.056" y="1.67" class="i">script.py</text></symbol><symbol id="10"><text x="2.004" y="1.67" class="c">08-29</text><text x="8.016" y="1.67" class="c">10:50</text><text x="15.03" y="1.67" class="c">08-29</text><text x="21.042" y="1.67" class="c">10:50</text><text x="28.056" y="1.67" class="i">スクリーンショット.png</text></symbol><symbol id="11"><text y="1.67" class="d">+</text><text x="2.004" y="1.67" class="e">08-29</text><text x="8.016" y="1.67" class="e">16:15</text><text x="15.03" y="1.67" class="c">08-29</text><text x="21.042" y="1.67" class="c">10:50</text><text x="28.056" y="1.67" class="i">组件.svelte</text></symbol><symbol id="12"><text x="2.004" y="1.67" class="c">08-29</text><text x="8.016" y="1.67" class="c">10:50</text><text x="15.03" y="1.67" class="c">08-29</text><text x="21.042" y="1.67" class="c">10:50</text><text x="28.056" y="1.67" class="h">错误.log</text></symbol><symbol id="13"><text y="1.67" class="c">$</text><text x="2.004" y="1.67" class="c">touch</text><text x="8.016" y="1.67" class="c">NEW.md</text></symbol><symbol id="14"><text y="1.67" class="d">+</text><text x="2.004" y="1.67" class="e">08-29</text><text x="8.016" y="1.67" class="e">19:52</text><text x="15.03" y="1.67" class="c">08-29</text><text x="21.042" y="1.67" class="c">14:26</text><text x="28.056" y="1.67" class="f">NEW.md</text></symbol><symbol id="15"><text y="1.67" class="c">$</text><text x="2.004" y="1.67" class="c">echo</text><text x="7.014" y="1.67" class="c">&apos;update&apos;</text><text x="16.032" y="1.67" class="c">&gt;&gt;</text><text x="19.038" y="1.67" class="c">en/howto.md</text></symbol><symbol id="a"><path fill="transparent" d="M0 0h58v26H0z"/></symbol></defs><path class="a" d="M0 0h58v56.446H0z"/><g style="animation-duration:16.047993s;animation-iteration-count:infinite;animation-name:k;animation-timing-function:steps(1,end)"><svg width="1798"><svg><use xlink:href="#a"/></svg><svg x="58"><use xlink:href="#a"/><text y="1.67" class="c">ftime</text><text x="6.012" y="1.67" class="c">Overview</text><text y="3.841" class="c">-</text><text x="2.004" y="3.841" class="c">Lists</text><text x="8.016" y="3.841" class="c">files/directories</text><text x="26.052" y="3.841" class="c">by</text><text x="29.058" y="3.841" class="c">most</text><text x="34.068" y="3.841" class="c">recent</text><text x="41.082" y="3.841" class="c">update</text><text y="6.012" class="c">-</text><text x="2.004" y="6.012" class="c">Works</text><text x="8.016" y="6.012" class="c">with</text><text x="13.026" y="6.012" class="c">any</text><text x="17.034" y="6.012" class="c">language</text><text x="26.052" y="6.012" class="c">or</text><text x="29.058" y="6.012" class="c">file</text><text x="34.068" y="6.012" class="c">extension</text></svg><svg x="116"><use xlink:href="#a"/></svg><svg x="174"><use xlink:href="#a"/><use xlink:href="#1" y="2.171"/></svg><svg x="232"><use xlink:href="#a"/><use xlink:href="#1" y="2.171"/><use xlink:href="#2" y="4.342"/></svg><svg x="290"><use xlink:href="#a"/><use xlink:href="#1" y="2.171"/><use xlink:href="#2" y="4.342"/><use xlink:href="#3" y="6.513"/></svg><svg x="348"><use xlink:href="#a"/><use xlink:href="#1" y="2.171"/><use xlink:href="#2" y="4.342"/><use xlink:href="#3" y="6.513"/><use xlink:href="#4" y="8.684"/></svg><svg x="406"><use xlink:href="#a"/><use xlink:href="#1" y="2.171"/><use xlink:href="#2" y="4.342"/><use xlink:href="#3" y="6.513"/><use xlink:href="#4" y="8.684"/><use xlink:href="#5" y="10.855"/></svg><svg x="464"><use xlink:href="#a"/><use xlink:href="#1" y="2.171"/><use xlink:href="#2" y="4.342"/><use xlink:href="#3" y="6.513"/><use xlink:href="#4" y="8.684"/><use xlink:href="#5" y="10.855"/><use xlink:href="#6" y="13.026"/></svg><svg x="522"><use xlink:href="#a"/><use xlink:href="#1" y="2.171"/><use xlink:href="#2" y="4.342"/><use xlink:href="#3" y="6.513"/><use xlink:href="#4" y="8.684"/><use xlink:href="#5" y="10.855"/><use xlink:href="#6" y="13.026"/><use xlink:href="#7" y="15.197"/></svg><svg x="580"><use xlink:href="#a"/><use xlink:href="#1" y="2.171"/><use xlink:href="#2" y="4.342"/><use xlink:href="#3" y="6.513"/><use xlink:href="#4" y="8.684"/><use xlink:href="#5" y="10.855"/><use xlink:href="#6" y="13.026"/><use xlink:href="#7" y="15.197"/><use xlink:href="#8" y="17.368"/></svg><svg x="638"><use xlink:href="#a"/><use xlink:href="#1" y="2.171"/><use xlink:href="#2" y="4.342"/><use xlink:href="#3" y="6.513"/><use xlink:href="#4" y="8.684"/><use xlink:href="#5" y="10.855"/><use xlink:href="#6" y="13.026"/><use xlink:href="#7" y="15.197"/><use xlink:href="#8" y="17.368"/><use xlink:href="#9" y="19.539"/></svg><svg x="696"><use xlink:href="#a"/><use xlink:href="#1" y="2.171"/><use xlink:href="#2" y="4.342"/><use xlink:href="#3" y="6.513"/><use xlink:href="#4" y="8.684"/><use xlink:href="#5" y="10.855"/><use xlink:href="#6" y="13.026"/><use xlink:href="#7" y="15.197"/><use xlink:href="#8" y="17.368"/><use xlink:href="#9" y="19.539"/><use xlink:href="#10" y="21.71"/></svg><svg x="754"><use xlink:href="#a"/><use xlink:href="#1" y="2.171"/><use xlink:href="#2" y="4.342"/><use xlink:href="#3" y="6.513"/><use xlink:href="#4" y="8.684"/><use xlink:href="#5" y="10.855"/><use xlink:href="#6" y="13.026"/><use xlink:href="#7" y="15.197"/><use xlink:href="#8" y="17.368"/><use xlink:href="#9" y="19.539"/><use xlink:href="#10" y="21.71"/><use xlink:href="#11" y="23.881"/></svg><svg x="812"><use xlink:href="#a"/><use xlink:href="#1" y="2.171"/><use xlink:href="#2" y="4.342"/><use xlink:href="#3" y="6.513"/><use xlink:href="#4" y="8.684"/><use xlink:href="#5" y="10.855"/><use xlink:href="#6" y="13.026"/><use xlink:href="#7" y="15.197"/><use xlink:href="#8" y="17.368"/><use xlink:href="#9" y="19.539"/><use xlink:href="#10" y="21.71"/><use xlink:href="#11" y="23.881"/><use xlink:href="#12" y="26.052"/></svg><svg x="870"><use xlink:href="#a"/><use xlink:href="#1" y="2.171"/><use xlink:href="#2" y="4.342"/><use xlink:href="#3" y="6.513"/><use xlink:href="#4" y="8.684"/><use xlink:href="#5" y="10.855"/><use xlink:href="#6" y="13.026"/><use xlink:href="#7" y="15.197"/><use xlink:href="#8" y="17.368"/><use xlink:href="#9" y="19.539"/><use xlink:href="#10" y="21.71"/><use xlink:href="#11" y="23.881"/><use xlink:href="#12" y="26.052"/><use xlink:href="#13" y="30.394"/></svg><svg x="928"><use xlink:href="#a"/><use xlink:href="#1" y="2.171"/><use xlink:href="#2" y="4.342"/><use xlink:href="#3" y="6.513"/><use xlink:href="#4" y="8.684"/><use xlink:href="#5" y="10.855"/><use xlink:href="#6" y="13.026"/><use xlink:href="#7" y="15.197"/><use xlink:href="#8" y="17.368"/><use xlink:href="#9" y="19.539"/><use xlink:href="#10" y="21.71"/><use xlink:href="#11" y="23.881"/><use xlink:href="#12" y="26.052"/><use xlink:href="#13" y="30.394"/><use xlink:href="#1" y="34.736"/></svg><svg x="986"><use xlink:href="#a"/><use xlink:href="#1" y="2.171"/><use xlink:href="#2" y="4.342"/><use xlink:href="#3" y="6.513"/><use xlink:href="#4" y="8.684"/><use xlink:href="#5" y="10.855"/><use xlink:href="#6" y="13.026"/><use xlink:href="#7" y="15.197"/><use xlink:href="#8" y="17.368"/><use xlink:href="#9" y="19.539"/><use xlink:href="#10" y="21.71"/><use xlink:href="#11" y="23.881"/><use xlink:href="#12" y="26.052"/><use xlink:href="#13" y="30.394"/><use xlink:href="#1" y="34.736"/><use xlink:href="#2" y="36.907"/></svg><svg x="1044"><use xlink:href="#a"/><use xlink:href="#1" y="2.171"/><use xlink:href="#2" y="4.342"/><use xlink:href="#3" y="6.513"/><use xlink:href="#4" y="8.684"/><use xlink:href="#5" y="10.855"/><use xlink:href="#6" y="13.026"/><use xlink:href="#7" y="15.197"/><use xlink:href="#8" y="17.368"/><use xlink:href="#9" y="19.539"/><use xlink:href="#10" y="21.71"/><use xlink:href="#11" y="23.881"/><use xlink:href="#12" y="26.052"/><use xlink:href="#13" y="30.394"/><use xlink:href="#1" y="34.736"/><use xlink:href="#2" y="36.907"/><use xlink:href="#14" y="39.078"/></svg><svg x="1102"><use xlink:href="#a"/><use xlink:href="#1" y="2.171"/><use xlink:href="#2" y="4.342"/><use xlink:href="#3" y="6.513"/><use xlink:href="#4" y="8.684"/><use xlink:href="#5" y="10.855"/><use xlink:href="#6" y="13.026"/><use xlink:href="#7" y="15.197"/><use xlink:href="#8" y="17.368"/><use xlink:href="#9" y="19.539"/><use xlink:href="#10" y="21.71"/><use xlink:href="#11" y="23.881"/><use xlink:href="#12" y="26.052"/><use xlink:href="#13" y="30.394"/><use xlink:href="#1" y="34.736"/><use xlink:href="#2" y="36.907"/><use xlink:href="#14" y="39.078"/><use xlink:href="#4" y="41.249"/></svg><svg x="1160"><use xlink:href="#a"/><use xlink:href="#1" y="2.171"/><use xlink:href="#2" y="4.342"/><use xlink:href="#3" y="6.513"/><use xlink:href="#4" y="8.684"/><use xlink:href="#5" y="10.855"/><use xlink:href="#6" y="13.026"/><use xlink:href="#7" y="15.197"/><use xlink:href="#8" y="17.368"/><use xlink:href="#9" y="19.539"/><use xlink:href="#10" y="21.71"/><use xlink:href="#11" y="23.881"/><use xlink:href="#12" y="26.052"/><use xlink:href="#13" y="30.394"/><use xlink:href="#1" y="34.736"/><use xlink:href="#2" y="36.907"/><use xlink:href="#14" y="39.078"/><use xlink:href="#4" y="41.249"/></svg><svg x="1218"><use xlink:href="#a"/><use xlink:href="#1" y="2.171"/><use xlink:href="#2" y="4.342"/><use xlink:href="#3" y="6.513"/><use xlink:href="#4" y="8.684"/><use xlink:href="#5" y="10.855"/><use xlink:href="#6" y="13.026"/><use xlink:href="#7" y="15.197"/><use xlink:href="#8" y="17.368"/><use xlink:href="#9" y="19.539"/><use xlink:href="#10" y="21.71"/><use xlink:href="#11" y="23.881"/><use xlink:href="#12" y="26.052"/><use xlink:href="#13" y="30.394"/><use xlink:href="#1" y="34.736"/><use xlink:href="#2" y="36.907"/><use xlink:href="#14" y="39.078"/><use xlink:href="#4" y="41.249"/><use xlink:href="#5" y="43.42"/></svg><svg x="1276"><use xlink:href="#a"/><use xlink:href="#1" y="2.171"/><use xlink:href="#2" y="4.342"/><use xlink:href="#3" y="6.513"/><use xlink:href="#4" y="8.684"/><use xlink:href="#5" y="10.855"/><use xlink:href="#6" y="13.026"/><use xlink:href="#7" y="15.197"/><use xlink:href="#8" y="17.368"/><use xlink:href="#9" y="19.539"/><use xlink:href="#10" y="21.71"/><use xlink:href="#11" y="23.881"/><use xlink:href="#12" y="26.052"/><use xlink:href="#13" y="30.394"/><use xlink:href="#1" y="34.736"/><use xlink:href="#2" y="36.907"/><use xlink:href="#14" y="39.078"/><use xlink:href="#4" y="41.249"/><use xlink:href="#5" y="43.42"/><use xlink:href="#6" y="45.591"/></svg><svg x="1334"><use xlink:href="#a"/><use xlink:href="#1" y="2.171"/><use xlink:href="#2" y="4.342"/><use xlink:href="#3" y="6.513"/><use xlink:href="#4" y="8.684"/><use xlink:href="#5" y="10.855"/><use xlink:href="#6" y="13.026"/><use xlink:href="#7" y="15.197"/><use xlink:href="#8" y="17.368"/><use xlink:href="#9" y="19.539"/><use xlink:href="#10" y="21.71"/><use xlink:href="#11" y="23.881"/><use xlink:href="#12" y="26.052"/><use xlink:href="#13" y="30.394"/><use xlink:href="#1" y="34.736"/><use xlink:href="#2" y="36.907"/><use xlink:href="#14" y="39.078"/><use xlink:href="#4" y="41.249"/><use xlink:href="#5" y="43.42"/><use xlink:href="#6" y="45.591"/><use xlink:href="#7" y="47.762"/></svg><svg x="1392"><use xlink:href="#a"/><use xlink:href="#1" y="2.171"/><use xlink:href="#2" y="4.342"/><use xlink:href="#3" y="6.513"/><use xlink:href="#4" y="8.684"/><use xlink:href="#5" y="10.855"/><use xlink:href="#6" y="13.026"/><use xlink:href="#7" y="15.197"/><use xlink:href="#8" y="17.368"/><use xlink:href="#9" y="19.539"/><use xlink:href="#10" y="21.71"/><use xlink:href="#11" y="23.881"/><use xlink:href="#12" y="26.052"/><use xlink:href="#13" y="30.394"/><use xlink:href="#1" y="34.736"/><use xlink:href="#2" y="36.907"/><use xlink:href="#14" y="39.078"/><use xlink:href="#4" y="41.249"/><use xlink:href="#5" y="43.42"/><use xlink:href="#6" y="45.591"/><use xlink:href="#7" y="47.762"/><use xlink:href="#8" y="49.933"/></svg><svg x="1450"><use xlink:href="#a"/><use xlink:href="#1" y="2.171"/><use xlink:href="#2" y="4.342"/><use xlink:href="#3" y="6.513"/><use xlink:href="#4" y="8.684"/><use xlink:href="#5" y="10.855"/><use xlink:href="#6" y="13.026"/><use xlink:href="#7" y="15.197"/><use xlink:href="#8" y="17.368"/><use xlink:href="#9" y="19.539"/><use xlink:href="#10" y="21.71"/><use xlink:href="#11" y="23.881"/><use xlink:href="#12" y="26.052"/><use xlink:href="#13" y="30.394"/><use xlink:href="#1" y="34.736"/><use xlink:href="#2" y="36.907"/><use xlink:href="#14" y="39.078"/><use xlink:href="#4" y="41.249"/><use xlink:href="#5" y="43.42"/><use xlink:href="#6" y="45.591"/><use xlink:href="#7" y="47.762"/><use xlink:href="#8" y="49.933"/><use xlink:href="#9" y="52.104"/></svg><svg x="1508"><use xlink:href="#a"/><use xlink:href="#1"/><use xlink:href="#2" y="2.171"/><use xlink:href="#3" y="4.342"/><use xlink:href="#4" y="6.513"/><use xlink:href="#5" y="8.684"/><use xlink:href="#6" y="10.855"/><use xlink:href="#7" y="13.026"/><use xlink:href="#8" y="15.197"/><use xlink:href="#9" y="17.368"/><use xlink:href="#10" y="19.539"/><use xlink:href="#11" y="21.71"/><use xlink:href="#12" y="23.881"/><use xlink:href="#13" y="28.223"/><use xlink:href="#1" y="32.565"/><use xlink:href="#2" y="34.736"/><use xlink:href="#14" y="36.907"/><use xlink:href="#4" y="39.078"/><use xlink:href="#5" y="41.249"/><use xlink:href="#6" y="43.42"/><use xlink:href="#7" y="45.591"/><use xlink:href="#8" y="47.762"/><use xlink:href="#9" y="49.933"/><use xlink:href="#10" y="52.104"/></svg><svg x="1566"><use xlink:href="#a"/><use xlink:href="#2"/><use xlink:href="#3" y="2.171"/><use xlink:href="#4" y="4.342"/><use xlink:href="#5" y="6.513"/><use xlink:href="#6" y="8.684"/><use xlink:href="#7" y="10.855"/><use xlink:href="#8" y="13.026"/><use xlink:href="#9" y="15.197"/><use xlink:href="#10" y="17.368"/><use xlink:href="#11" y="19.539"/><use xlink:href="#12" y="21.71"/><use xlink:href="#13" y="26.052"/><use xlink:href="#1" y="30.394"/><use xlink:href="#2" y="32.565"/><use xlink:href="#14" y="34.736"/><use xlink:href="#4" y="36.907"/><use xlink:href="#5" y="39.078"/><use xlink:href="#6" y="41.249"/><use xlink:href="#7" y="43.42"/><use xlink:href="#8" y="45.591"/><use xlink:href="#9" y="47.762"/><use xlink:href="#10" y="49.933"/><use xlink:href="#11" y="52.104"/></svg><svg x="1624"><use xlink:href="#a"/><use xlink:href="#3"/><use xlink:href="#4" y="2.171"/><use xlink:href="#5" y="4.342"/><use xlink:href="#6" y="6.513"/><use xlink:href="#7" y="8.684"/><use xlink:href="#8" y="10.855"/><use xlink:href="#9" y="13.026"/><use xlink:href="#10" y="15.197"/><use xlink:href="#11" y="17.368"/><use xlink:href="#12" y="19.539"/><use xlink:href="#13" y="23.881"/><use xlink:href="#1" y="28.223"/><use xlink:href="#2" y="30.394"/><use xlink:href="#14" y="32.565"/><use xlink:href="#4" y="34.736"/><use xlink:href="#5" y="36.907"/><use xlink:href="#6" y="39.078"/><use xlink:href="#7" y="41.249"/><use xlink:href="#8" y="43.42"/><use xlink:href="#9" y="45.591"/><use xlink:href="#10" y="47.762"/><use xlink:href="#11" y="49.933"/><use xlink:href="#12" y="52.104"/></svg><svg x="1682"><use xlink:href="#a"/><use xlink:href="#5"/><use xlink:href="#6" y="2.171"/><use xlink:href="#7" y="4.342"/><use xlink:href="#8" y="6.513"/><use xlink:href="#9" y="8.684"/><use xlink:href="#10" y="10.855"/><use xlink:href="#11" y="13.026"/><use xlink:href="#12" y="15.197"/><use xlink:href="#13" y="19.539"/><use xlink:href="#1" y="23.881"/><use xlink:href="#2" y="26.052"/><use xlink:href="#14" y="28.223"/><use xlink:href="#4" y="30.394"/><use xlink:href="#5" y="32.565"/><use xlink:href="#6" y="34.736"/><use xlink:href="#7" y="36.907"/><use xlink:href="#8" y="39.078"/><use xlink:href="#9" y="41.249"/><use xlink:href="#10" y="43.42"/><use xlink:href="#11" y="45.591"/><use xlink:href="#12" y="47.762"/><use xlink:href="#15" y="52.104"/></svg><svg x="1740"><use xlink:href="#a"/><use xlink:href="#7"/><use xlink:href="#8" y="2.171"/><use xlink:href="#9" y="4.342"/><use xlink:href="#10" y="6.513"/><use xlink:href="#11" y="8.684"/><use xlink:href="#12" y="10.855"/><use xlink:href="#13" y="15.197"/><use xlink:href="#1" y="19.539"/><use xlink:href="#2" y="21.71"/><use xlink:href="#14" y="23.881"/><use xlink:href="#4" y="26.052"/><use xlink:href="#5" y="28.223"/><use xlink:href="#6" y="30.394"/><use xlink:href="#7" y="32.565"/><use xlink:href="#8" y="34.736"/><use xlink:href="#9" y="36.907"/><use xlink:href="#10" y="39.078"/><use xlink:href="#11" y="41.249"/><use xlink:href="#12" y="43.42"/><use xlink:href="#15" y="47.762"/><text y="51.603" class="c">tools/demo-basic.sh:</text><text x="21.042" y="51.603" class="c">line</text><text x="26.052" y="51.603" class="c">31:</text><text x="30.06" y="51.603" class="c">en/howto.md:</text><text x="43.086" y="51.603" class="c">No</text><text x="46.092" y="51.603" class="c">such</text><text x="51.102" y="51.603" class="c">file</text><text x="56.112" y="51.603" class="c">or</text><text x="1.002" y="53.774" class="c">directory</text></svg></svg></g></g></svg></svg></svg>