<svg xmlns="http://www.w3.org/2000/svg" width="610" height="624.46" viewBox="0 0 610 624.46">
  <style>
    .a { fill: #282d35; }
    .poster-text { fill: #b9c0cb; font-family: Monaco, Consolas, Menlo, 'Bitstream Vera Sans Mono', 'Powerline Symbols', monospace; font-size: 16px; }
    @keyframes posterFade { to { opacity: 0; } }
    .poster-overlay { animation: posterFade 0.001s linear both; animation-delay: 1.5s; }
    #term-content { animation: i 8.00s steps(1, end) infinite; transform: translateX(-58px); }
  </style>
<rect width="610" height="624.46" rx="5" ry="5" class="a"/><svg y="0" x="0"><circle cx="20" cy="20" r="6" fill="#ff5f58"/><circle cx="40" cy="20" r="6" fill="#ffbd2e"/><circle cx="60" cy="20" r="6" fill="#18c132"/></svg>
<g class="poster-overlay"><text x="40" y="80" class="poster-text">ftime: Filtering by Pattern</text><text x="40" y="102" class="poster-text">- Focus on specific extensions or strings</text></g><svg id="term-content" x="15" y="50" xmlns="http://www.w3.org/2000/svg" xmlns:xlink="http://www.w3.org/1999/xlink" width="580" height="564.46"><rect width="580" height="564.46" rx="0" ry="0" class="a"/><svg height="564.46" viewBox="0 0 58 56.446" width="580" xmlns="http://www.w3.org/2000/svg" xmlns:xlink="http://www.w3.org/1999/xlink"><style>@keyframes i{0%{transform:translateX(0)}.2%{transform:translateX(-58px)}35.6%{transform:translateX(-174px)}57%{transform:translateX(-232px)}57.2%{transform:translateX(-290px)}57.5%{transform:translateX(-348px)}85.8%{transform:translateX(-406px)}to{transform:translateX(-464px)}}.a{fill:#282d35}.c{fill:#b9c0cb;white-space:pre}.d{fill:#dbab79}.d,.e,.f,.g{white-space:pre}.e{fill:#a8cc8c;font-weight:700}.f,.g{fill:#d290e4}.g{fill:#6f7783}</style><g font-family="Monaco,Consolas,Menlo,'Bitstream Vera Sans Mono','Powerline Symbols',monospace" font-size="1.67"><defs><symbol id="1"><text y="1.67" class="c">$</text><text x="2.004" y="1.67" class="c">ftime</text><text x="8.016" y="1.67" class="c">md</text></symbol><symbol id="2"><text x="2.004" y="1.67" class="c">MODIFIED</text><text x="15.03" y="1.67" class="c">CREATED</text><text x="28.056" y="1.67" class="c">NAME</text></symbol><symbol id="3"><text y="1.67" class="d">+</text><text x="2.004" y="1.67" class="e">08-29</text><text x="8.016" y="1.67" class="e">19:52</text><text x="15.03" y="1.67" class="c">08-29</text><text x="21.042" y="1.67" class="c">14:26</text><text x="28.056" y="1.67" class="f">NEW.md</text></symbol><symbol id="4"><text y="1.67" class="d">+</text><text x="2.004" y="1.67" class="g">08-19</text><text x="8.016" y="1.67" class="g">16:15</text><text x="15.03" y="1.67" class="c">08-29</text><text x="21.042" y="1.67" class="c">10:50</text><text x="28.056" y="1.67" class="f">old.md</text></symbol><symbol id="5"><text y="1.67" class="c">$</text><text x="2.004" y="1.67" class="c">touch</text><text x="8.016" y="1.67" class="c">en/new.md</text></symbol><symbol id="a"><path fill="transparent" d="M0 0h58v26H0z"/></symbol></defs><path class="a" d="M0 0h58v56.446H0z"/><g style="animation-duration:8.491968s;animation-iteration-count:infinite;animation-name:i;animation-timing-function:steps(1,end)"><svg width="522"><svg><use xlink:href="#a"/></svg><svg x="58"><use xlink:href="#a"/><text y="1.67" class="c">ftime:</text><text x="7.014" y="1.67" class="c">Filtering</text><text x="17.034" y="1.67" class="c">with</text><text x="22.044" y="1.67" class="c">Patterns</text><text y="3.841" class="c">-</text><text x="2.004" y="3.841" class="c">Focus</text><text x="8.016" y="3.841" class="c">on</text><text x="11.022" y="3.841" class="c">specific</text><text x="20.04" y="3.841" class="c">extensions</text><text x="31.062" y="3.841" class="c">or</text><text x="34.068" y="3.841" class="c">strings</text></svg><svg x="116"><use xlink:href="#a"/></svg><svg x="174"><use xlink:href="#a"/><use xlink:href="#1" y="2.171"/></svg><svg x="232"><use xlink:href="#a"/><use xlink:href="#1" y="2.171"/><use xlink:href="#2" y="4.342"/></svg><svg x="290"><use xlink:href="#a"/><use xlink:href="#1" y="2.171"/><use xlink:href="#2" y="4.342"/><use xlink:href="#3" y="6.513"/></svg><svg x="348"><use xlink:href="#a"/><use xlink:href="#1" y="2.171"/><use xlink:href="#2" y="4.342"/><use xlink:href="#3" y="6.513"/><use xlink:href="#4" y="8.684"/></svg><svg x="406"><use xlink:href="#a"/><use xlink:href="#1" y="2.171"/><use xlink:href="#2" y="4.342"/><use xlink:href="#3" y="6.513"/><use xlink:href="#4" y="8.684"/><use xlink:href="#5" y="13.026"/></svg><svg x="464"><use xlink:href="#a"/><use xlink:href="#1" y="2.171"/><use xlink:href="#2" y="4.342"/><use xlink:href="#3" y="6.513"/><use xlink:href="#4" y="8.684"/><use xlink:href="#5" y="13.026"/><text y="16.867" class="c">touch:</text><text x="7.014" y="16.867" class="c">cannot</text><text x="14.028" y="16.867" class="c">touch</text><text x="20.04" y="16.867" class="c">&apos;en/new.md&apos;:</text><text x="33.066" y="16.867" class="c">No</text><text x="36.072" y="16.867" class="c">such</text><text x="41.082" y="16.867" class="c">file</text><text x="46.092" y="16.867" class="c">or</text><text x="49.098" y="16.867" class="c">directory</text></svg></svg></g></g></svg></svg></svg>