<svg xmlns="http://www.w3.org/2000/svg" width="610" height="624.46" viewBox="0 0 610 624.46">
  <style>
    .a { fill: #282d35; }
    .poster-text { fill: #b9c0cb; font-family: Monaco, Consolas, Menlo, 'Bitstream Vera Sans Mono', 'Powerline Symbols', monospace; font-size: 16px; }
    @keyframes posterFade { to { opacity: 0; } }
    .poster-overlay { animation: posterFade 0.001s linear both; animation-delay: 1.5s; }
    #term-content { animation: k 8.00s steps(1, end) infinite; transform: translateX(-58px); }
  </style>
<rect width="610" height="624.46" rx="5" ry="5" class="a"/><svg y="0" x="0"><circle cx="20" cy="20" r="6" fill="#ff5f58"/><circle cx="40" cy="20" r="6" fill="#ffbd2e"/><circle cx="60" cy="20" r="6" fill="#18c132"/></svg>
<g class="poster-overlay"><text x="40" y="80" class="poster-text">ftime: Timezone Switching</text><text x="40" y="102" class="poster-text">- Change display timezone with FTL_TZ env var</text></g><svg id="term-content" x="15" y="50" xmlns="http://www.w3.org/2000/svg" xmlns:xlink="http://www.w3.org/1999/xlink" width="580" height="564.46"><rect width="580" height="564.46" rx="0" ry="0" class="a"/><svg height="564.46" viewBox="0 0 58 56.446" width="580" xmlns="http://www.w3.org/2000/svg" xmlns:xlink="http://www.w3.org/1999/xlink"><style>@keyframes k{0%{transform:translateX(0)}.1%{transform:translateX(-58px)}30.2%{transform:translateX(-174px)}48.4%{transform:translateX(-232px)}48.6%{transform:translateX(-290px)}48.8%{transform:translateX(-348px)}48.9%{transform:translateX(-406px)}49.1%{transform:translateX(-464px)}49.3%{transform:translateX(-522px)}49.4%{transform:translateX(-580px)}49.6%{transform:translateX(-638px)}49.8%{transform:translateX(-696px)}49.9%{transform:translateX(-754px)}50.1%{transform:translateX(-812px)}80.2%{transform:translateX(-870px)}98.3%{transform:translateX(-928px)}98.5%{transform:translateX(-986px)}98.6%{transform:translateX(-1044px)}98.8%{transform:translateX(-1102px)}99%{transform:translateX(-1160px)}99.2%{transform:translateX(-1218px)}99.3%{transform:translateX(-1276px)}99.5%{transform:translateX(-1334px)}99.7%{transform:translateX(-1392px)}99.8%{transform:translateX(-1450px)}to{transform:translateX(-1508px)}}.a{fill:#282d35}.c,.d,.e{fill:#b9c0cb;white-space:pre}.d,.e{fill:#dbab79}.e{fill:#a8cc8c;font-weight:700}.f{fill:#d290e4}.f,.g,.h,.i{white-space:pre}.g{fill:#71bef2;font-weight:700}.h,.i{fill:#6f7783}.i{fill:#66c2cd}</style><g font-family="Monaco,Consolas,Menlo,'Bitstream Vera Sans Mono','Powerline Symbols',monospace" font-size="1.67"><defs><symbol id="1"><text y="1.67" class="c">$</text><text x="2.004" y="1.67" class="c">ftime</text></symbol><symbol id="2"><text x="2.004" y="1.67" class="c">MODIFIED</text><text x="15.03" y="1.67" class="c">CREATED</text><text x="28.056" y="1.67" class="c">NAME</text></symbol><symbol id="3"><text y="1.67" class="d">+</text><text x="2.004" y="1.67" class="e">08-29</text><text x="8.016" y="1.67" class="e">19:52</text><text x="15.03" y="1.67" class="c">08-29</text><text x="21.042" y="1.67" class="c">14:26</text><text x="28.056" y="1.67" class="f">NEW.md</text></symbol><symbol id="4"><text x="2.004" y="1.67" class="c">08-29</text><text x="8.016" y="1.67" class="c">10:50</text><text x="15.03" y="1.67" class="c">08-29</text><text x="21.042" y="1.67" class="c">10:50</text><text x="28.056" y="1.67" class="g">api</text></symbol><symbol id="5"><text y="1.67" class="d">+</text><text x="2.004" y="1.67" class="e">08-29</text><text x="8.016" y="1.67" class="e">19:35</text><text x="15.03" y="1.67" class="c">08-29</text><text x="21.042" y="1.67" class="c">10:50</text><text x="28.056" y="1.67" class="h">api_server.log</text></symbol><symbol id="6"><text y="1.67" class="d">+</text><text x="2.004" y="1.67" class="e">08-29</text><text x="8.016" y="1.67" class="e">16:15</text><text x="15.03" y="1.67" class="c">08-29</text><text x="21.042" y="1.67" class="c">10:50</text><text x="28.056" y="1.67" class="i">app.ts</text></symbol><symbol id="7"><text y="1.67" class="d">+</text><text x="2.004" y="1.67" class="c">08-29</text><text x="8.016" y="1.67" class="c">14:27</text><text x="15.03" y="1.67" class="c">08-29</text><text x="21.042" y="1.67" class="c">10:50</text><text x="28.056" y="1.67" class="g">docs</text></symbol><symbol id="8"><text y="1.67" class="d">+</text><text x="2.004" y="1.67" class="h">08-19</text><text x="8.016" y="1.67" class="h">16:15</text><text x="15.03" y="1.67" class="c">08-29</text><text x="21.042" y="1.67" class="c">10:50</text><text x="28.056" y="1.67" class="f">old.md</text></symbol><symbol id="9"><text y="1.67" class="d">+</text><text x="2.004" y="1.67" class="e">08-29</text><text x="8.016" y="1.67" class="e">16:15</text><text x="15.03" y="1.67" class="c">08-29</text><text x="21.042" y="1.67" class="c">10:50</text><text x="28.056" y="1.67" class="i">script.py</text></symbol><symbol id="10"><text x="2.004" y="1.67" class="c">08-29</text><text x="8.016" y="1.67" class="c">10:50</text><text x="15.03" y="1.67" class="c">08-29</text><text x="21.042" y="1.67" class="c">10:50</text><text x="28.056" y="1.67" class="i">スクリーンショット.png</text></symbol><symbol id="11"><text y="1.67" class="d">+</text><text x="2.004" y="1.67" class="e">08-29</text><text x="8.016" y="1.67" class="e">16:15</text><text x="15.03" y="1.67" class="c">08-29</text><text x="21.042" y="1.67" class="c">10:50</text><text x="28.056" y="1.67" class="i">组件.svelte</text></symbol><symbol id="12"><text x="2.004" y="1.67" class="c">08-29</text><text x="8.016" y="1.67" class="c">10:50</text><text x="15.03" y="1.67" class="c">08-29</text><text x="21.042" y="1.67" class="c">10:50</text><text x="28.056" y="1.67" class="h">错误.log</text></symbol><symbol id="13"><text y="1.67" class="c">$</text><text x="2.004" y="1.67" class="c">FTL_TZ=Asia/Tokyo</text><text x="20.04" y="1.67" class="c">ftime</text></symbol><symbol id="a"><path fill="transparent" d="M0 0h58v26H0z"/></symbol></defs><path class="a" d="M0 0h58v56.446H0z"/><g style="animation-duration:9.999264s;animation-iteration-count:infinite;animation-name:k;animation-timing-function:steps(1,end)"><svg width="1566"><svg><use xlink:href="#a"/></svg><svg x="58"><use xlink:href="#a"/><text y="1.67" class="c">ftime:</text><text x="7.014" y="1.67" class="c">Timezone</text><text x="16.032" y="1.67" class="c">Switching</text><text y="3.841" class="c">-</text><text x="2.004" y="3.841" class="c">Change</text><text x="9.018" y="3.841" class="c">display</text><text x="17.034" y="3.841" class="c">timezone</text><text x="26.052" y="3.841" class="c">with</text><text x="31.062" y="3.841" class="c">the</text><text x="35.07" y="3.841" class="c">FTL_TZ</text><text x="42.084" y="3.841" class="c">environment</text><text x="54.108" y="3.841" class="c">vari</text><text y="6.012" class="c">able</text></svg><svg x="116"><use xlink:href="#a"/></svg><svg x="174"><use xlink:href="#a"/><use xlink:href="#1" y="2.171"/></svg><svg x="232"><use xlink:href="#a"/><use xlink:href="#1" y="2.171"/><use xlink:href="#2" y="4.342"/></svg><svg x="290"><use xlink:href="#a"/><use xlink:href="#1" y="2.171"/><use xlink:href="#2" y="4.342"/><use xlink:href="#3" y="6.513"/></svg><svg x="348"><use xlink:href="#a"/><use xlink:href="#1" y="2.171"/><use xlink:href="#2" y="4.342"/><use xlink:href="#3" y="6.513"/><use xlink:href="#4" y="8.684"/></svg><svg x="406"><use xlink:href="#a"/><use xlink:href="#1" y="2.171"/><use xlink:href="#2" y="4.342"/><use xlink:href="#3" y="6.513"/><use xlink:href="#4" y="8.684"/><use xlink:href="#5" y="10.855"/></svg><svg x="464"><use xlink:href="#a"/><use xlink:href="#1" y="2.171"/><use xlink:href="#2" y="4.342"/><use xlink:href="#3" y="6.513"/><use xlink:href="#4" y="8.684"/><use xlink:href="#5" y="10.855"/><use xlink:href="#6" y="13.026"/></svg><svg x="522"><use xlink:href="#a"/><use xlink:href="#1" y="2.171"/><use xlink:href="#2" y="4.342"/><use xlink:href="#3" y="6.513"/><use xlink:href="#4" y="8.684"/><use xlink:href="#5" y="10.855"/><use xlink:href="#6" y="13.026"/><use xlink:href="#7" y="15.197"/></svg><svg x="580"><use xlink:href="#a"/><use xlink:href="#1" y="2.171"/><use xlink:href="#2" y="4.342"/><use xlink:href="#3" y="6.513"/><use xlink:href="#4" y="8.684"/><use xlink:href="#5" y="10.855"/><use xlink:href="#6" y="13.026"/><use xlink:href="#7" y="15.197"/><use xlink:href="#8" y="17.368"/></svg><svg x="638"><use xlink:href="#a"/><use xlink:href="#1" y="2.171"/><use xlink:href="#2" y="4.342"/><use xlink:href="#3" y="6.513"/><use xlink:href="#4" y="8.684"/><use xlink:href="#5" y="10.855"/><use xlink:href="#6" y="13.026"/><use xlink:href="#7" y="15.197"/><use xlink:href="#8" y="17.368"/><use xlink:href="#9" y="19.539"/></svg><svg x="696"><use xlink:href="#a"/><use xlink:href="#1" y="2.171"/><use xlink:href="#2" y="4.342"/><use xlink:href="#3" y="6.513"/><use xlink:href="#4" y="8.684"/><use xlink:href="#5" y="10.855"/><use xlink:href="#6" y="13.026"/><use xlink:href="#7" y="15.197"/><use xlink:href="#8" y="17.368"/><use xlink:href="#9" y="19.539"/><use xlink:href="#10" y="21.71"/></svg><svg x="754"><use xlink:href="#a"/><use xlink:href="#1" y="2.171"/><use xlink:href="#2" y="4.342"/><use xlink:href="#3" y="6.513"/><use xlink:href="#4" y="8.684"/><use xlink:href="#5" y="10.855"/><use xlink:href="#6" y="13.026"/><use xlink:href="#7" y="15.197"/><use xlink:href="#8" y="17.368"/><use xlink:href="#9" y="19.539"/><use xlink:href="#10" y="21.71"/><use xlink:href="#11" y="23.881"/></svg><svg x="812"><use xlink:href="#a"/><use xlink:href="#1" y="2.171"/><use xlink:href="#2" y="4.342"/><use xlink:href="#3" y="6.513"/><use xlink:href="#4" y="8.684"/><use xlink:href="#5" y="10.855"/><use xlink:href="#6" y="13.026"/><use xlink:href="#7" y="15.197"/><use xlink:href="#8" y="17.368"/><use xlink:href="#9" y="19.539"/><use xlink:href="#10" y="21.71"/><use xlink:href="#11" y="23.881"/><use xlink:href="#12" y="26.052"/></svg><svg x="870"><use xlink:href="#a"/><use xlink:href="#1" y="2.171"/><use xlink:href="#2" y="4.342"/><use xlink:href="#3" y="6.513"/><use xlink:href="#4" y="8.684"/><use xlink:href="#5" y="10.855"/><use xlink:href="#6" y="13.026"/><use xlink:href="#7" y="15.197"/><use xlink:href="#8" y="17.368"/><use xlink:href="#9" y="19.539"/><use xlink:href="#10" y="21.71"/><use xlink:href="#11" y="23.881"/><use xlink:href="#12" y="26.052"/><use xlink:href="#13" y="30.394"/></svg><svg x="928"><use xlink:href="#a"/><use xlink:href="#1" y="2.171"/><use xlink:href="#2" y="4.342"/><use xlink:href="#3" y="6.513"/><use xlink:href="#4" y="8.684"/><use xlink:href="#5" y="10.855"/><use xlink:href="#6" y="13.026"/><use xlink:href="#7" y="15.197"/><use xlink:href="#8" y="17.368"/><use xlink:href="#9" y="19.539"/><use xlink:href="#10" y="21.71"/><use xlink:href="#11" y="23.881"/><use xlink:href="#12" y="26.052"/><use xlink:href="#13" y="30.394"/><use xlink:href="#2" y="32.565"/></svg><svg x="986"><use xlink:href="#a"/><use xlink:href="#1" y="2.171"/><use xlink:href="#2" y="4.342"/><use xlink:href="#3" y="6.513"/><use xlink:href="#4" y="8.684"/><use xlink:href="#5" y="10.855"/><use xlink:href="#6" y="13.026"/><use xlink:href="#7" y="15.197"/><use xlink:href="#8" y="17.368"/><use xlink:href="#9" y="19.539"/><use xlink:href="#10" y="21.71"/><use xlink:href="#11" y="23.881"/><use xlink:href="#12" y="26.052"/><use xlink:href="#13" y="30.394"/><use xlink:href="#2" y="32.565"/><use xlink:href="#3" y="34.736"/></svg><svg x="1044"><use xlink:href="#a"/><use xlink:href="#1" y="2.171"/><use xlink:href="#2" y="4.342"/><use xlink:href="#3" y="6.513"/><use xlink:href="#4" y="8.684"/><use xlink:href="#5" y="10.855"/><use xlink:href="#6" y="13.026"/><use xlink:href="#7" y="15.197"/><use xlink:href="#8" y="17.368"/><use xlink:href="#9" y="19.539"/><use xlink:href="#10" y="21.71"/><use xlink:href="#11" y="23.881"/><use xlink:href="#12" y="26.052"/><use xlink:href="#13" y="30.394"/><use xlink:href="#2" y="32.565"/><use xlink:href="#3" y="34.736"/><use xlink:href="#4" y="36.907"/></svg><svg x="1102"><use xlink:href="#a"/><use xlink:href="#1" y="2.171"/><use xlink:href="#2" y="4.342"/><use xlink:href="#3" y="6.513"/><use xlink:href="#4" y="8.684"/><use xlink:href="#5" y="10.855"/><use xlink:href="#6" y="13.026"/><use xlink:href="#7" y="15.197"/><use xlink:href="#8" y="17.368"/><use xlink:href="#9" y="19.539"/><use xlink:href="#10" y="21.71"/><use xlink:href="#11" y="23.881"/><use xlink:href="#12" y="26.052"/><use xlink:href="#13" y="30.394"/><use xlink:href="#2" y="32.565"/><use xlink:href="#3" y="34.736"/><use xlink:href="#4" y="36.907"/><use xlink:href="#5" y="39.078"/></svg><svg x="1160"><use xlink:href="#a"/><use xlink:href="#1" y="2.171"/><use xlink:href="#2" y="4.342"/><use xlink:href="#3" y="6.513"/><use xlink:href="#4" y="8.684"/><use xlink:href="#5" y="10.855"/><use xlink:href="#6" y="13.026"/><use xlink:href="#7" y="15.197"/><use xlink:href="#8" y="17.368"/><use xlink:href="#9" y="19.539"/><use xlink:href="#10" y="21.71"/><use xlink:href="#11" y="23.881"/><use xlink:href="#12" y="26.052"/><use xlink:href="#13" y="30.394"/><use xlink:href="#2" y="32.565"/><use xlink:href="#3" y="34.736"/><use xlink:href="#4" y="36.907"/><use xlink:href="#5" y="39.078"/><use xlink:href="#6" y="41.249"/></svg><svg x="1218"><use xlink:href="#a"/><use xlink:href="#1" y="2.171"/><use xlink:href="#2" y="4.342"/><use xlink:href="#3" y="6.513"/><use xlink:href="#4" y="8.684"/><use xlink:href="#5" y="10.855"/><use xlink:href="#6" y="13.026"/><use xlink:href="#7" y="15.197"/><use xlink:href="#8" y="17.368"/><use xlink:href="#9" y="19.539"/><use xlink:href="#10" y="21.71"/><use xlink:href="#11" y="23.881"/><use xlink:href="#12" y="26.052"/><use xlink:href="#13" y="30.394"/><use xlink:href="#2" y="32.565"/><use xlink:href="#3" y="34.736"/><use xlink:href="#4" y="36.907"/><use xlink:href="#5" y="39.078"/><use xlink:href="#6" y="41.249"/><use xlink:href="#7" y="43.42"/></svg><svg x="1276"><use xlink:href="#a"/><use xlink:href="#1" y="2.171"/><use xlink:href="#2" y="4.342"/><use xlink:href="#3" y="6.513"/><use xlink:href="#4" y="8.684"/><use xlink:href="#5" y="10.855"/><use xlink:href="#6" y="13.026"/><use xlink:href="#7" y="15.197"/><use xlink:href="#8" y="17.368"/><use xlink:href="#9" y="19.539"/><use xlink:href="#10" y="21.71"/><use xlink:href="#11" y="23.881"/><use xlink:href="#12" y="26.052"/><use xlink:href="#13" y="30.394"/><use xlink:href="#2" y="32.565"/><use xlink:href="#3" y="34.736"/><use xlink:href="#4" y="36.907"/><use xlink:href="#5" y="39.078"/><use xlink:href="#6" y="41.249"/><use xlink:href="#7" y="43.42"/><use xlink:href="#8" y="45.591"/></svg><svg x="1334"><use xlink:href="#a"/><use xlink:href="#1" y="2.171"/><use xlink:href="#2" y="4.342"/><use xlink:href="#3" y="6.513"/><use xlink:href="#4" y="8.684"/><use xlink:href="#5" y="10.855"/><use xlink:href="#6" y="13.026"/><use xlink:href="#7" y="15.197"/><use xlink:href="#8" y="17.368"/><use xlink:href="#9" y="19.539"/><use xlink:href="#10" y="21.71"/><use xlink:href="#11" y="23.881"/><use xlink:href="#12" y="26.052"/><use xlink:href="#13" y="30.394"/><use xlink:href="#2" y="32.565"/><use xlink:href="#3" y="34.736"/><use xlink:href="#4" y="36.907"/><use xlink:href="#5" y="39.078"/><use xlink:href="#6" y="41.249"/><use xlink:href="#7" y="43.42"/><use xlink:href="#8" y="45.591"/><use xlink:href="#9" y="47.762"/></svg><svg x="1392"><use xlink:href="#a"/><use xlink:href="#1" y="2.171"/><use xlink:href="#2" y="4.342"/><use xlink:href="#3" y="6.513"/><use xlink:href="#4" y="8.684"/><use xlink:href="#5" y="10.855"/><use xlink:href="#6" y="13.026"/><use xlink:href="#7" y="15.197"/><use xlink:href="#8" y="17.368"/><use xlink:href="#9" y="19.539"/><use xlink:href="#10" y="21.71"/><use xlink:href="#11" y="23.881"/><use xlink:href="#12" y="26.052"/><use xlink:href="#13" y="30.394"/><use xlink:href="#2" y="32.565"/><use xlink:href="#3" y="34.736"/><use xlink:href="#4" y="36.907"/><use xlink:href="#5" y="39.078"/><use xlink:href="#6" y="41.249"/><use xlink:href="#7" y="43.42"/><use xlink:href="#8" y="45.591"/><use xlink:href="#9" y="47.762"/><use xlink:href="#10" y="49.933"/></svg><svg x="1450"><use xlink:href="#a"/><use xlink:href="#1" y="2.171"/><use xlink:href="#2" y="4.342"/><use xlink:href="#3" y="6.513"/><use xlink:href="#4" y="8.684"/><use xlink:href="#5" y="10.855"/><use xlink:href="#6" y="13.026"/><use xlink:href="#7" y="15.197"/><use xlink:href="#8" y="17.368"/><use xlink:href="#9" y="19.539"/><use xlink:href="#10" y="21.71"/><use xlink:href="#11" y="23.881"/><use xlink:href="#12" y="26.052"/><use xlink:href="#13" y="30.394"/><use xlink:href="#2" y="32.565"/><use xlink:href="#3" y="34.736"/><use xlink:href="#4" y="36.907"/><use xlink:href="#5" y="39.078"/><use xlink:href="#6" y="41.249"/><use xlink:href="#7" y="43.42"/><use xlink:href="#8" y="45.591"/><use xlink:href="#9" y="47.762"/><use xlink:href="#10" y="49.933"/><use xlink:href="#11" y="52.104"/></svg><svg x="1508"><use xlink:href="#a"/><use xlink:href="#1"/><use xlink:href="#2" y="2.171"/><use xlink:href="#3" y="4.342"/><use xlink:href="#4" y="6.513"/><use xlink:href="#5" y="8.684"/><use xlink:href="#6" y="10.855"/><use xlink:href="#7" y="13.026"/><use xlink:href="#8" y="15.197"/><use xlink:href="#9" y="17.368"/><use xlink:href="#10" y="19.539"/><use xlink:href="#11" y="21.71"/><use xlink:href="#12" y="23.881"/><use xlink:href="#13" y="28.223"/><use xlink:href="#2" y="30.394"/><use xlink:href="#3" y="32.565"/><use xlink:href="#4" y="34.736"/><use xlink:href="#5" y="36.907"/><use xlink:href="#6" y="39.078"/><use xlink:href="#7" y="41.249"/><use xlink:href="#8" y="43.42"/><use xlink:href="#9" y="45.591"/><use xlink:href="#10" y="47.762"/><use xlink:href="#11" y="49.933"/><use xlink:href="#12" y="52.104"/></svg></svg></g></g></svg></svg></svg>